<?xml version="1.0" standalone="no"?>
<!DOCTYPE svg PUBLIC "-//W3C//DTD SVG 20010904//EN"
 "http://www.w3.org/TR/2001/REC-SVG-20010904/DTD/svg10.dtd">
<svg version="1.0" xmlns="http://www.w3.org/2000/svg"
 width="700.000000pt" height="700.000000pt" viewBox="0 0 700.000000 700.000000"
 preserveAspectRatio="xMidYMid meet">
<metadata>
Created by potrace 1.11, written by Peter Selinger 2001-2013
</metadata>
<g transform="translate(0.000000,700.000000) scale(0.100000,-0.100000)"
fill="#000000" stroke="none">
<path d="M5830 6993 c-309 -51 -550 -257 -639 -546 -51 -165 -45 -343 16 -506
l24 -65 -479 -479 -480 -480 -517 516 c-284 285 -519 517 -523 517 -4 0 -117
-110 -251 -244 l-244 -244 237 -236 c130 -129 236 -239 236 -243 0 -4 -69 -75
-154 -158 -286 -278 -709 -689 -791 -770 -45 -44 -219 -213 -385 -375 -746
-726 -755 -736 -786 -803 l-29 -62 -3 -555 -3 -555 -529 -530 -530 -530 185
-185 c101 -101 188 -181 192 -177 4 4 243 242 531 529 l522 522 548 1 c580 2
568 1 661 50 38 19 107 89 987 994 295 303 353 362 654 671 162 166 325 333
362 372 l67 69 239 -240 239 -239 248 248 247 247 -516 516 c-284 283 -516
519 -516 523 0 18 955 962 965 954 5 -4 44 -20 87 -34 396 -132 840 86 977
481 154 442 -96 910 -549 1028 -61 16 -245 27 -300 18z m249 -559 c78 -46 129
-156 118 -254 -25 -207 -275 -301 -430 -161 -130 117 -111 329 38 417 81 47
192 46 274 -2z m-2113 -2200 l246 -246 -24 -26 c-12 -14 -100 -105 -194 -201
-95 -97 -203 -208 -240 -248 -38 -39 -208 -214 -379 -389 -170 -174 -341 -350
-380 -389 -338 -348 -653 -671 -668 -684 -15 -14 -57 -16 -292 -17 l-274 0 0
276 0 277 142 138 c78 76 279 271 446 434 167 163 338 330 381 371 42 41 214
209 381 372 510 498 594 578 601 578 4 0 119 -111 254 -246z"/>
</g>
</svg>
